<?xml version="1.0" encoding="UTF-8" standalone="no" ?>
<!DOCTYPE svg PUBLIC "-//W3C//DTD SVG 1.1//EN" "http://www.w3.org/Graphics/SVG/1.1/DTD/svg11.dtd">
<svg xmlns="http://www.w3.org/2000/svg" xmlns:xlink="http://www.w3.org/1999/xlink" version="1.1" width="1280" height="1024" viewBox="0 0 1280 1024" xml:space="preserve">
<desc>Created with Fabric.js 5.3.0</desc>
<defs>
</defs>
<g transform="matrix(1 0 0 1 640 512)" id="background-logo"  >
<rect style="stroke: none; stroke-width: 0; stroke-dasharray: none; stroke-linecap: butt; stroke-dashoffset: 0; stroke-linejoin: miter; stroke-miterlimit: 4; fill: rgb(26,91,105); fill-rule: nonzero; opacity: 1;"  paint-order="stroke"  x="-640" y="-512" rx="0" ry="0" width="1280" height="1024" />
</g>
<g transform="matrix(1.6796937756900876 0 0 1.6796937756900876 261.00437500000015 512)" id="logo-logo"  >
<g style=""  paint-order="stroke"   >
		<g transform="matrix(0.8921268993714967 0 0 0.8921268993714967 0 0)"  >
<g style=""  paint-order="stroke"   >
		<g transform="matrix(1 0 0 1 0 0)"  >
<path style="stroke: none; stroke-width: 1; stroke-dasharray: none; stroke-linecap: butt; stroke-dashoffset: 0; stroke-linejoin: miter; stroke-miterlimit: 4; fill: rgb(198,151,95); fill-rule: nonzero; opacity: 1;"  paint-order="stroke"  transform=" translate(-100, -99.83500000000001)" d="M 34.32 182.84 L 48.9 182.84 L 48.9 199.67000000000002 L 67.06 199.67000000000002 L 67.06 183.15 L 82.46000000000001 183.15 L 82.46000000000001 199.67000000000002 L 100.61000000000001 199.67000000000002 L 100.61000000000001 183.15 L 115.72000000000001 183.15 L 115.72000000000001 199.67000000000002 L 133.87 199.67000000000002 L 133.87 183.15 L 148.73000000000002 183.15 L 148.73000000000002 199.67000000000002 L 166.89000000000001 199.67000000000002 L 166.89000000000001 183.15 L 181.89000000000001 183.15 L 181.89000000000001 199.67000000000002 L 200 199.67000000000002 L 200 182 L 183.1 182 L 183.1 167.09 L 200 167.09 L 200 149.09 L 183.1 149.09 L 183.1 133.69 L 200 133.69 L 200 115.69 L 183.1 115.69 L 183.1 100.69 L 200 100.69 L 200 82.69 L 183.12 82.69 L 183.12 67.69 L 200 67.69 L 200 49.69 L 183.16 49.69 L 183.16 34.18 L 200 34.18 L 200 16.18 L 183.16 16.18 L 183.16 0.05 L 166.31 0.05 L 166.31 16.150000000000002 L 150.11 16.150000000000002 L 150.11 0 L 133.26 0 L 133.26 16.1 L 116.85999999999999 16.1 L 116.85999999999999 0 L 100 0 L 100 16.1 L 83.93 16.1 L 83.93 0 L 67.08 0 L 67.08 16.1 L 50.57 16.1 L 50.57 0 L 33.72 0 L 33.72 16.1 L 16.88 16.1 L 16.88 0 L 0 0 L 0 16.73 L 16.21 16.73 L 16.21 33.47 L 0 33.47 L 0 50.2 L 16.19 50.2 L 16.19 66.64 L 0 66.64 L 0 83.37 L 16.16 83.37 L 16.16 99.65 L 0 99.65 L 0 116.39 L 16.16 116.39 L 16.16 132.67000000000002 L 0 132.67000000000002 L 0 149.4 L 16.16 149.4 L 16.16 166.1 L 0 166.1 L 0 182.84 L 16.16 182.84 L 16.16 199.67000000000002 L 34.32 199.67000000000002 Z M 167 16.78 L 182 16.78 L 182 33.52 L 167 33.52 Z M 167 50.25 L 182 50.25 L 182 67 L 167 67 Z M 167 83.68 L 182 83.68 L 182 100 L 167 100 Z M 167 116.68 L 182 116.68 L 182 133 L 167 133 Z M 167 149.68 L 182 149.68 L 182 166.38 L 167 166.38 Z M 150.11 34.18 L 166.31 34.18 L 166.31 49.59 L 150.11 49.59 Z M 149.43 67.62 L 166.28 67.62 L 166.28 82.62 L 149.43 82.62 Z M 149.43 100.62 L 166.28 100.62 L 166.28 115.62 L 149.4 115.62 Z M 149.43 133.62 L 166.28 133.62 L 166.28 149.02 L 149.4 149.02 Z M 149.43 167.06 L 166.28 167.06 L 166.28 182 L 149.4 182 Z M 133.89 16.75 L 148.79 16.75 L 148.79 33.48 L 133.89 33.48 Z M 133.89 50.22 L 148.76 50.22 L 148.76 67 L 133.89 67 Z M 133.89 83.68 L 148.75 83.68 L 148.75 100 L 133.87 100 Z M 133.89 116.68 L 148.75 116.68 L 148.75 133 L 133.87 133 Z M 133.89 149.68 L 148.75 149.68 L 148.75 166.38 L 133.87 166.38 Z M 116.88999999999999 34.110000000000014 L 133.29 34.110000000000014 L 133.29 49.27 L 116.88999999999999 49.27 Z M 116.88999999999999 67.26000000000002 L 132.61999999999998 67.26000000000002 L 132.61999999999998 82.26000000000002 L 116.85 82.26000000000002 Z M 116.88999999999999 100.26000000000002 L 132.63 100.26000000000002 L 132.63 115.26000000000002 L 116.82 115.26000000000002 Z M 116.88999999999999 133.26000000000002 L 132.63 133.26000000000002 L 132.63 148.67000000000002 L 116.82 148.67000000000002 Z M 116.88999999999999 166.70000000000002 L 132.63 166.70000000000002 L 132.63 181.58 L 116.82 181.58 Z M 100.71999999999998 16.700000000000017 L 115.80999999999999 16.700000000000017 L 115.80999999999999 33.48 L 100.65 33.48 Z M 100.71999999999998 50.170000000000016 L 115.81999999999998 50.170000000000016 L 115.81999999999998 67 L 100.71999999999998 67 Z M 100.71999999999998 83.63000000000002 L 115.82999999999998 83.63000000000002 L 115.82999999999998 100 L 100.61 100 Z M 100.71999999999998 116.63000000000002 L 115.82999999999998 116.63000000000002 L 115.82999999999998 133 L 100.61 133 Z M 100.71999999999998 149.63000000000002 L 115.82999999999998 149.63000000000002 L 115.82999999999998 166.33 L 100.61 166.33 Z M 82.57 166.33 L 67.06 166.33 L 67.06 149.63000000000002 L 82.46000000000001 149.63000000000002 Z M 82.57 132.9 L 67.06 132.9 L 67.06 116.7 L 82.46000000000001 116.7 Z M 82.57 99.9 L 67.06 99.9 L 67.06 83.68 L 82.46000000000001 83.68 Z M 84.03999999999999 34.08000000000001 L 100 34.08000000000001 L 100 49.59 L 83.93 49.59 Z M 83.25999999999999 67.55000000000001 L 100 67.55000000000001 L 100 82.55000000000001 L 83.15 82.55000000000001 Z M 83.25999999999999 100.55000000000001 L 100 100.55000000000001 L 100 115.55000000000001 L 83.13 115.55000000000001 Z M 83.25999999999999 133.55 L 100 133.55 L 100 148.95000000000002 L 83.13 148.95000000000002 Z M 83.25999999999999 166.99 L 100 166.99 L 100 182 L 83.13 182 Z M 67.72 16.75 L 82.5 16.75 L 82.5 33.48 L 67.72 33.48 Z M 67.08 50.22 L 82.48 50.22 L 82.48 67 L 67.08 67 Z M 50.57 34.15 L 67.08 34.15 L 67.08 49.59 L 50.57 49.59 Z M 50.57 67.62 L 66.31 67.62 L 66.31 82.62 L 50.55 82.62 Z M 50.57 100.62 L 66.28 100.62 L 66.28 115.62 L 50.53 115.62 Z M 50.57 133.62 L 66.28 133.62 L 66.28 149.02 L 50.53 149.02 Z M 50.57 167.06 L 66.28 167.06 L 66.28 182 L 50.53 182 Z M 34.36 16.73 L 49.56 16.73 L 49.56 33.47 L 34.36 33.47 Z M 34.36 50.2 L 48.93 50.2 L 48.93 66.64 L 34.34 66.64 Z M 34.36 83.37 L 48.9 83.37 L 48.9 99.65 L 34.32 99.65 Z M 34.36 116.37 L 48.9 116.37 L 48.9 132.65 L 34.32 132.65 Z M 34.36 149.37 L 48.9 149.37 L 48.9 166.07 L 34.32 166.07 Z M 33.72 181.62 L 16.84 181.62 L 16.84 166.77 L 33.68 166.77 Z M 33.72 148.71 L 16.84 148.71 L 16.84 133.33 L 33.68 133.33 Z M 33.72 115.27000000000001 L 16.84 115.27000000000001 L 16.84 100.27000000000001 L 33.68 100.27000000000001 Z M 33.72 82.27000000000001 L 16.86 82.27000000000001 L 16.86 67.27000000000001 L 33.71 67.27000000000001 Z M 33.72 49.27000000000001 L 16.88 49.27000000000001 L 16.88 34.13 L 33.72 34.13 Z" stroke-linecap="round" />
</g>
</g>
</g>
		<g transform="matrix(0.6040051769107776 0 0 0.6040051769107776 0 0)"  >
<g style=""  paint-order="stroke"   >
		<g transform="matrix(1 0 0 1 0 0)"  >
<rect style="stroke: none; stroke-width: 1; stroke-dasharray: none; stroke-linecap: butt; stroke-dashoffset: 0; stroke-linejoin: miter; stroke-miterlimit: 4; fill: rgb(198,151,95); fill-rule: nonzero; opacity: 1;"  paint-order="stroke"  x="-100" y="-100" rx="0" ry="0" width="200" height="200" />
</g>
</g>
</g>
</g>
</g>
<g transform="matrix(1.9211538461538462 0 0 1.9211538461538462 812.3497581762018 489.9068211051211)" id="text-logo"  >
<g style=""  paint-order="stroke"   >
		<g transform="matrix(1 0 0 1 0 0)" id="text-logo-path-0"  >
<path style="stroke: rgb(255,255,255); stroke-width: 0; stroke-dasharray: none; stroke-linecap: butt; stroke-dashoffset: 0; stroke-linejoin: miter; stroke-miterlimit: 4; fill: rgb(198,151,95); fill-rule: nonzero; opacity: 1;"  paint-order="stroke"  transform=" translate(-177.9, 19.245)" d="M 1.93 0 L 10.72 0 C 21.34 0 29.98 -8.63 29.98 -19.3 C 29.98 -29.86 21.34 -38.5 10.72 -38.5 L 1.93 -38.5 Z M 10.72 -6.6 L 8.53 -6.6 L 8.53 -31.9 L 10.72 -31.9 C 18.15 -31.9 23.38 -26.68 23.38 -19.3 C 23.38 -11.82 18.15 -6.6 10.72 -6.6 Z M 50.82 0 L 50.82 -16.61 L 61.05 -38.5 L 53.79 -38.5 L 47.85 -25.8 L 41.91 -38.5 L 34.65 -38.5 L 44.16 -18.09 L 44.22 -18.09 L 44.22 0 Z M 72.33 0 L 72.33 -29.21 L 84.86 -10.95 L 84.86 0 L 91.47 0 L 91.47 -38.5 L 84.86 -38.5 L 84.86 -22.61 L 73.97 -38.5 L 65.72 -38.5 L 65.72 0 Z M 102.96 0 L 105.66 -10.45 L 114.78 -10.45 L 117.48 0 L 124.3 0 L 114.4 -38.5 L 106.04 -38.5 L 96.14 0 Z M 107.36 -17.05 L 110.22 -28.27 L 113.08 -17.05 Z M 135.58 0 L 135.58 -23.21 L 143.06 -3.3 L 150.65 -3.3 L 158.13 -23.21 L 158.13 0 L 164.73 0 L 164.73 -38.5 L 156.81 -38.5 L 146.85 -11.99 L 136.9 -38.5 L 128.98 -38.5 L 128.98 0 Z M 176 0 L 176 -38.5 L 169.4 -38.5 L 169.4 0 Z M 205.43 -6.6 L 199.93 -6.6 C 192.5 -6.6 187.28 -11.82 187.28 -19.3 C 187.28 -26.68 192.5 -31.9 199.93 -31.9 L 205.43 -31.9 L 205.43 -38.5 L 199.93 -38.5 C 189.31 -38.5 180.68 -29.86 180.68 -19.3 C 180.68 -8.63 189.31 0 199.93 0 L 205.43 0 Z M 226.6 -22.77 L 210.1 -22.77 L 210.1 -16.17 L 226.6 -16.17 Z M 252.07 -38.5 L 242.66 -38.5 C 236.39 -38.5 231.28 -33.38 231.28 -27.11 C 231.28 -20.79 236.39 -15.73 242.66 -15.73 L 242.66 -18.86 C 246.46 -18.86 248.77 -16.61 248.77 -12.71 C 248.77 -8.91 246.46 -6.6 242.66 -6.6 L 231.99 -6.6 L 231.99 0 L 242.66 0 C 249.65 0 255.37 -5.72 255.37 -12.71 C 255.37 -19.8 249.65 -25.46 242.66 -25.46 L 242.66 -22.33 C 239.58 -22.33 237.88 -23.98 237.88 -27.11 C 237.88 -30.2 239.58 -31.9 242.66 -31.9 L 252.07 -31.9 Z M 279.57 -6.33 C 271.92 -6.33 266.64 -11.66 266.64 -19.3 C 266.64 -26.84 271.92 -32.17 279.57 -32.17 C 287.16 -32.17 292.49 -26.84 292.49 -19.3 C 292.49 -16.39 291.72 -13.75 290.29 -11.71 L 287.1 -16.5 L 279.18 -16.5 L 285.23 -7.42 C 283.53 -6.71 281.66 -6.33 279.57 -6.33 Z M 260.04 -19.3 C 260.04 -8.47 268.73 0.28 279.57 0.28 C 282.92 0.28 286.06 -0.55 288.81 -2.04 L 290.18 0 L 298.1 0 L 294.03 -6.11 C 297.17 -9.63 299.09 -14.24 299.09 -19.3 C 299.09 -30.03 290.35 -38.77 279.57 -38.77 C 268.73 -38.77 260.04 -30.03 260.04 -19.3 Z M 303.77 0 L 325.66 0 L 325.66 -6.6 L 310.37 -6.6 L 310.37 -38.5 L 303.77 -38.5 Z M 333.63 -31.9 L 342.16 -31.9 C 345.35 -31.9 347.27 -29.98 347.27 -26.68 L 347.27 -26.02 C 347.27 -22.71 345.35 -20.79 342.16 -20.79 C 335.67 -20.79 330.33 -15.46 330.33 -8.96 L 330.33 0 L 353.87 0 L 353.87 -6.6 L 336.93 -6.6 L 336.93 -8.96 C 336.93 -12.27 338.86 -14.19 342.16 -14.19 C 348.54 -14.19 353.87 -19.52 353.87 -26.02 L 353.87 -26.68 C 353.87 -33.16 348.54 -38.5 342.16 -38.5 L 333.63 -38.5 Z" stroke-linecap="round" />
</g>
</g>
</g>
<g transform="matrix(1.9211538461538462 0 0 1.9211538461538462 819.0745923076922 566.1237739228751)" id="tagline-84a4af04-1511-48de-b2a3-15039f3a3492-logo"  >
<g style=""  paint-order="stroke"   >
		<g transform="matrix(1 0 0 1 0 0)" id="tagline-84a4af04-1511-48de-b2a3-15039f3a3492-logo-path-0"  >
<path style="stroke: none; stroke-width: 0; stroke-dasharray: none; stroke-linecap: butt; stroke-dashoffset: 0; stroke-linejoin: miter; stroke-miterlimit: 4; fill: rgb(198,151,95); fill-rule: nonzero; opacity: 1;"  paint-order="stroke"  transform=" translate(-184.07, 7.35)" d="M 2.25 -4.01 L 0.74 -3.34 C 1.66 -1.34 3.74 0.21 6.28 0.21 C 9.81 0.21 11.78 -2.06 11.78 -4.07 C 11.78 -6.93 8.71 -7.67 6.36 -8.32 C 4.24 -8.9 2.65 -9.41 2.65 -10.88 C 2.65 -12.33 4.41 -13.34 5.92 -13.34 C 8.48 -13.31 9.2 -12.16 9.66 -11 L 11.21 -11.59 C 10.69 -12.92 9.53 -14.91 5.92 -14.91 C 3.72 -14.89 0.97 -13.42 0.97 -10.88 C 0.97 -8.23 3.63 -7.43 5.9 -6.8 C 8.25 -6.15 10.1 -5.69 10.1 -4.07 C 10.1 -2.86 8.78 -1.36 6.28 -1.36 C 4.47 -1.36 2.96 -2.48 2.25 -4.01 Z M 21.23 -14.7 L 21.23 0 L 22.91 0 L 22.91 -14.7 Z M 33.29 -14.7 L 33.29 0 L 34.97 0 L 34.97 -12.16 L 40.01 0 L 41.69 0 L 46.73 -12.16 L 46.73 0 L 48.41 0 L 48.41 -14.7 L 46.09 -14.7 L 40.84 -2.04 L 35.59 -14.7 Z M 58.78 -14.7 L 58.78 0 L 60.46 0 L 60.46 -5.52 L 65.08 -5.52 C 67.6 -5.52 69.66 -7.58 69.66 -10.12 C 69.66 -12.64 67.6 -14.7 65.08 -14.7 Z M 60.46 -7.1 L 60.46 -13.13 L 64.97 -13.13 C 66.63 -13.13 67.98 -11.78 67.98 -10.12 C 67.98 -8.44 66.63 -7.1 64.97 -7.1 Z M 79.15 -14.7 L 79.15 0 L 89.44 0 L 89.44 -1.58 L 80.83 -1.58 L 80.83 -14.7 Z M 98.74 -14.7 L 98.74 0 L 109.03 0 L 109.03 -1.58 L 100.42 -1.58 L 100.42 -6.57 L 106.93 -6.57 L 106.93 -8.15 L 100.42 -8.15 L 100.42 -13.13 L 109.03 -13.13 L 109.03 -14.7 Z M 118.13 -7.41 L 118.13 -7.41 C 118.13 -7.96 118.27 -8.34 118.54 -8.57 C 118.82 -8.8 119.15 -8.9 119.55 -8.9 L 119.55 -8.9 C 119.95 -8.9 120.29 -8.8 120.58 -8.57 C 120.85 -8.34 121 -7.96 121 -7.41 L 121 -7.41 C 121 -6.87 120.85 -6.47 120.58 -6.24 C 120.29 -6.01 119.95 -5.88 119.55 -5.88 L 119.55 -5.88 C 119.15 -5.88 118.8 -6.01 118.54 -6.24 C 118.27 -6.47 118.13 -6.87 118.13 -7.41 Z M 131.27 0 L 132.95 0 L 132.95 -6.57 L 139.46 -6.57 L 139.46 -8.15 L 132.95 -8.15 L 132.95 -13.13 L 141.56 -13.13 L 141.56 -14.7 L 131.27 -14.7 Z M 150.86 -14.7 L 150.86 0 L 161.15 0 L 161.15 -1.58 L 152.54 -1.58 L 152.54 -14.7 Z M 170.46 -14.7 L 170.46 0 L 180.75 0 L 180.75 -1.58 L 172.14 -1.58 L 172.14 -6.57 L 178.65 -6.57 L 178.65 -8.15 L 172.14 -8.15 L 172.14 -13.13 L 180.75 -13.13 L 180.75 -14.7 Z M 189.53 -14.7 L 194.15 -7.35 L 189.11 0 L 191.12 0 L 195.28 -6.05 L 199.42 0 L 201.43 0 L 196.39 -7.35 L 201.01 -14.7 L 199 -14.7 L 195.28 -8.78 L 191.54 -14.7 Z M 210.69 -14.7 L 210.69 0 L 212.37 0 L 212.37 -14.7 Z M 222.75 -14.7 L 222.75 0 L 230.31 0 C 232.45 0 234.17 -1.72 234.17 -3.86 C 234.17 -5.61 233.04 -7.08 231.48 -7.56 C 232.49 -8.27 233.18 -9.45 233.18 -10.79 C 233.18 -12.96 231.4 -14.7 229.26 -14.7 Z M 229.11 -8.15 L 224.43 -8.15 L 224.43 -13.13 L 229.11 -13.13 C 230.48 -13.13 231.61 -12.01 231.61 -10.65 C 231.61 -9.26 230.48 -8.15 229.11 -8.15 Z M 224.43 -1.58 L 224.43 -6.57 L 230.1 -6.57 C 231.48 -6.57 232.6 -5.46 232.6 -4.07 C 232.6 -2.69 231.48 -1.58 230.1 -1.58 Z M 243.66 -14.7 L 243.66 0 L 253.95 0 L 253.95 -1.58 L 245.34 -1.58 L 245.34 -14.7 Z M 263.26 -14.7 L 263.26 0 L 273.55 0 L 273.55 -1.58 L 264.94 -1.58 L 264.94 -6.57 L 271.45 -6.57 L 271.45 -8.15 L 264.94 -8.15 L 264.94 -13.13 L 273.55 -13.13 L 273.55 -14.7 Z M 282.64 -7.41 L 282.64 -7.41 C 282.64 -7.96 282.79 -8.34 283.06 -8.57 C 283.33 -8.8 283.67 -8.9 284.07 -8.9 L 284.07 -8.9 C 284.47 -8.9 284.8 -8.8 285.1 -8.57 C 285.37 -8.34 285.52 -7.96 285.52 -7.41 L 285.52 -7.41 C 285.52 -6.87 285.37 -6.47 285.1 -6.24 C 284.8 -6.01 284.47 -5.88 284.07 -5.88 L 284.07 -5.88 C 283.67 -5.88 283.31 -6.01 283.06 -6.24 C 282.79 -6.47 282.64 -6.87 282.64 -7.41 Z M 296.35 -4.01 L 294.84 -3.34 C 295.76 -1.34 297.84 0.21 300.38 0.21 C 303.91 0.21 305.89 -2.06 305.89 -4.07 C 305.89 -6.93 302.82 -7.67 300.47 -8.32 C 298.35 -8.9 296.75 -9.41 296.75 -10.88 C 296.75 -12.33 298.52 -13.34 300.03 -13.34 C 302.59 -13.31 303.3 -12.16 303.77 -11 L 305.32 -11.59 C 304.79 -12.92 303.64 -14.91 300.03 -14.91 C 297.82 -14.89 295.07 -13.42 295.07 -10.88 C 295.07 -8.23 297.74 -7.43 300.01 -6.8 C 302.36 -6.15 304.21 -5.69 304.21 -4.07 C 304.21 -2.86 302.88 -1.36 300.38 -1.36 C 298.58 -1.36 297.07 -2.48 296.35 -4.01 Z M 320.1 -14.7 L 314.22 0 L 315.99 0 L 317.44 -3.63 L 325.04 -3.63 L 326.49 0 L 328.25 0 L 322.37 -14.7 Z M 318.07 -5.21 L 321.24 -13.13 L 324.41 -5.21 Z M 337.51 0 L 339.19 0 L 339.19 -6.57 L 345.7 -6.57 L 345.7 -8.15 L 339.19 -8.15 L 339.19 -13.13 L 347.8 -13.13 L 347.8 -14.7 L 337.51 -14.7 Z M 357.11 -14.7 L 357.11 0 L 367.4 0 L 367.4 -1.58 L 358.79 -1.58 L 358.79 -6.57 L 365.3 -6.57 L 365.3 -8.15 L 358.79 -8.15 L 358.79 -13.13 L 367.4 -13.13 L 367.4 -14.7 Z" stroke-linecap="round" />
</g>
</g>
</g>
<g transform="matrix(1.9211538461538462 0 0 1.9211538461538462 264.72705524809555 512.9379880966012)" id="tagline-81184f7b-f5fb-4edc-871b-34431050d097-logo"  >
<g style=""  paint-order="stroke"   >
		<g transform="matrix(1 0 0 1 0 0)" id="tagline-81184f7b-f5fb-4edc-871b-34431050d097-logo-path-0"  >
<path style="stroke: rgb(255,255,255); stroke-width: 0; stroke-dasharray: none; stroke-linecap: butt; stroke-dashoffset: 0; stroke-linejoin: miter; stroke-miterlimit: 4; fill: rgb(26,91,105); fill-rule: nonzero; opacity: 1;"  paint-order="stroke"  transform=" translate(-22.909999999999997, 27.65)" d="M 2.77 0 L 15.4 0 C 30.65 0 43.05 -12.4 43.05 -27.73 C 43.05 -42.9 30.65 -55.3 15.4 -55.3 L 2.77 -55.3 Z M 15.4 -9.48 L 12.25 -9.48 L 12.25 -45.82 L 15.4 -45.82 C 26.07 -45.82 33.58 -38.31 33.58 -27.73 C 33.58 -16.98 26.07 -9.48 15.4 -9.48 Z" stroke-linecap="round" />
</g>
</g>
</g>
</svg>