<?xml version="1.0" encoding="UTF-8" standalone="no" ?>
<!DOCTYPE svg PUBLIC "-//W3C//DTD SVG 1.1//EN" "http://www.w3.org/Graphics/SVG/1.1/DTD/svg11.dtd">
<svg xmlns="http://www.w3.org/2000/svg" xmlns:xlink="http://www.w3.org/1999/xlink" version="1.1" width="1280" height="1024" viewBox="0 0 1280 1024" xml:space="preserve">
<desc>Created with Fabric.js 5.3.0</desc>
<defs>
</defs>
<g transform="matrix(1 0 0 1 640 512)" id="background-logo"  >
<rect style="stroke: none; stroke-width: 0; stroke-dasharray: none; stroke-linecap: butt; stroke-dashoffset: 0; stroke-linejoin: miter; stroke-miterlimit: 4; fill: rgb(255,255,255); fill-opacity: 0; fill-rule: nonzero; opacity: 1;"  paint-order="stroke"  x="-640" y="-512" rx="0" ry="0" width="1280" height="1024" />
</g>
<g transform="matrix(2.8413001502014934 0 0 2.8413001502014934 640 405.4217872699272)" id="logo-logo"  >
<g style=""  paint-order="stroke"   >
		<g transform="matrix(0.8921268993714967 0 0 0.8921268993714967 0 0)"  >
<g style=""  paint-order="stroke"   >
		<g transform="matrix(1 0 0 1 0 0)"  >
<path style="stroke: none; stroke-width: 1; stroke-dasharray: none; stroke-linecap: butt; stroke-dashoffset: 0; stroke-linejoin: miter; stroke-miterlimit: 4; fill: rgb(198,151,95); fill-rule: nonzero; opacity: 1;"  paint-order="stroke"  transform=" translate(-100, -99.83500000000001)" d="M 34.32 182.84 L 48.9 182.84 L 48.9 199.67000000000002 L 67.06 199.67000000000002 L 67.06 183.15 L 82.46000000000001 183.15 L 82.46000000000001 199.67000000000002 L 100.61000000000001 199.67000000000002 L 100.61000000000001 183.15 L 115.72000000000001 183.15 L 115.72000000000001 199.67000000000002 L 133.87 199.67000000000002 L 133.87 183.15 L 148.73000000000002 183.15 L 148.73000000000002 199.67000000000002 L 166.89000000000001 199.67000000000002 L 166.89000000000001 183.15 L 181.89000000000001 183.15 L 181.89000000000001 199.67000000000002 L 200 199.67000000000002 L 200 182 L 183.1 182 L 183.1 167.09 L 200 167.09 L 200 149.09 L 183.1 149.09 L 183.1 133.69 L 200 133.69 L 200 115.69 L 183.1 115.69 L 183.1 100.69 L 200 100.69 L 200 82.69 L 183.12 82.69 L 183.12 67.69 L 200 67.69 L 200 49.69 L 183.16 49.69 L 183.16 34.18 L 200 34.18 L 200 16.18 L 183.16 16.18 L 183.16 0.05 L 166.31 0.05 L 166.31 16.150000000000002 L 150.11 16.150000000000002 L 150.11 0 L 133.26 0 L 133.26 16.1 L 116.85999999999999 16.1 L 116.85999999999999 0 L 100 0 L 100 16.1 L 83.93 16.1 L 83.93 0 L 67.08 0 L 67.08 16.1 L 50.57 16.1 L 50.57 0 L 33.72 0 L 33.72 16.1 L 16.88 16.1 L 16.88 0 L 0 0 L 0 16.73 L 16.21 16.73 L 16.21 33.47 L 0 33.47 L 0 50.2 L 16.19 50.2 L 16.19 66.64 L 0 66.64 L 0 83.37 L 16.16 83.37 L 16.16 99.65 L 0 99.65 L 0 116.39 L 16.16 116.39 L 16.16 132.67000000000002 L 0 132.67000000000002 L 0 149.4 L 16.16 149.4 L 16.16 166.1 L 0 166.1 L 0 182.84 L 16.16 182.84 L 16.16 199.67000000000002 L 34.32 199.67000000000002 Z M 167 16.78 L 182 16.78 L 182 33.52 L 167 33.52 Z M 167 50.25 L 182 50.25 L 182 67 L 167 67 Z M 167 83.68 L 182 83.68 L 182 100 L 167 100 Z M 167 116.68 L 182 116.68 L 182 133 L 167 133 Z M 167 149.68 L 182 149.68 L 182 166.38 L 167 166.38 Z M 150.11 34.18 L 166.31 34.18 L 166.31 49.59 L 150.11 49.59 Z M 149.43 67.62 L 166.28 67.62 L 166.28 82.62 L 149.43 82.62 Z M 149.43 100.62 L 166.28 100.62 L 166.28 115.62 L 149.4 115.62 Z M 149.43 133.62 L 166.28 133.62 L 166.28 149.02 L 149.4 149.02 Z M 149.43 167.06 L 166.28 167.06 L 166.28 182 L 149.4 182 Z M 133.89 16.75 L 148.79 16.75 L 148.79 33.48 L 133.89 33.48 Z M 133.89 50.22 L 148.76 50.22 L 148.76 67 L 133.89 67 Z M 133.89 83.68 L 148.75 83.68 L 148.75 100 L 133.87 100 Z M 133.89 116.68 L 148.75 116.68 L 148.75 133 L 133.87 133 Z M 133.89 149.68 L 148.75 149.68 L 148.75 166.38 L 133.87 166.38 Z M 116.88999999999999 34.110000000000014 L 133.29 34.110000000000014 L 133.29 49.27 L 116.88999999999999 49.27 Z M 116.88999999999999 67.26000000000002 L 132.61999999999998 67.26000000000002 L 132.61999999999998 82.26000000000002 L 116.85 82.26000000000002 Z M 116.88999999999999 100.26000000000002 L 132.63 100.26000000000002 L 132.63 115.26000000000002 L 116.82 115.26000000000002 Z M 116.88999999999999 133.26000000000002 L 132.63 133.26000000000002 L 132.63 148.67000000000002 L 116.82 148.67000000000002 Z M 116.88999999999999 166.70000000000002 L 132.63 166.70000000000002 L 132.63 181.58 L 116.82 181.58 Z M 100.71999999999998 16.700000000000017 L 115.80999999999999 16.700000000000017 L 115.80999999999999 33.48 L 100.65 33.48 Z M 100.71999999999998 50.170000000000016 L 115.81999999999998 50.170000000000016 L 115.81999999999998 67 L 100.71999999999998 67 Z M 100.71999999999998 83.63000000000002 L 115.82999999999998 83.63000000000002 L 115.82999999999998 100 L 100.61 100 Z M 100.71999999999998 116.63000000000002 L 115.82999999999998 116.63000000000002 L 115.82999999999998 133 L 100.61 133 Z M 100.71999999999998 149.63000000000002 L 115.82999999999998 149.63000000000002 L 115.82999999999998 166.33 L 100.61 166.33 Z M 82.57 166.33 L 67.06 166.33 L 67.06 149.63000000000002 L 82.46000000000001 149.63000000000002 Z M 82.57 132.9 L 67.06 132.9 L 67.06 116.7 L 82.46000000000001 116.7 Z M 82.57 99.9 L 67.06 99.9 L 67.06 83.68 L 82.46000000000001 83.68 Z M 84.03999999999999 34.08000000000001 L 100 34.08000000000001 L 100 49.59 L 83.93 49.59 Z M 83.25999999999999 67.55000000000001 L 100 67.55000000000001 L 100 82.55000000000001 L 83.15 82.55000000000001 Z M 83.25999999999999 100.55000000000001 L 100 100.55000000000001 L 100 115.55000000000001 L 83.13 115.55000000000001 Z M 83.25999999999999 133.55 L 100 133.55 L 100 148.95000000000002 L 83.13 148.95000000000002 Z M 83.25999999999999 166.99 L 100 166.99 L 100 182 L 83.13 182 Z M 67.72 16.75 L 82.5 16.75 L 82.5 33.48 L 67.72 33.48 Z M 67.08 50.22 L 82.48 50.22 L 82.48 67 L 67.08 67 Z M 50.57 34.15 L 67.08 34.15 L 67.08 49.59 L 50.57 49.59 Z M 50.57 67.62 L 66.31 67.62 L 66.31 82.62 L 50.55 82.62 Z M 50.57 100.62 L 66.28 100.62 L 66.28 115.62 L 50.53 115.62 Z M 50.57 133.62 L 66.28 133.62 L 66.28 149.02 L 50.53 149.02 Z M 50.57 167.06 L 66.28 167.06 L 66.28 182 L 50.53 182 Z M 34.36 16.73 L 49.56 16.73 L 49.56 33.47 L 34.36 33.47 Z M 34.36 50.2 L 48.93 50.2 L 48.93 66.64 L 34.34 66.64 Z M 34.36 83.37 L 48.9 83.37 L 48.9 99.65 L 34.32 99.65 Z M 34.36 116.37 L 48.9 116.37 L 48.9 132.65 L 34.32 132.65 Z M 34.36 149.37 L 48.9 149.37 L 48.9 166.07 L 34.32 166.07 Z M 33.72 181.62 L 16.84 181.62 L 16.84 166.77 L 33.68 166.77 Z M 33.72 148.71 L 16.84 148.71 L 16.84 133.33 L 33.68 133.33 Z M 33.72 115.27000000000001 L 16.84 115.27000000000001 L 16.84 100.27000000000001 L 33.68 100.27000000000001 Z M 33.72 82.27000000000001 L 16.86 82.27000000000001 L 16.86 67.27000000000001 L 33.71 67.27000000000001 Z M 33.72 49.27000000000001 L 16.88 49.27000000000001 L 16.88 34.13 L 33.72 34.13 Z" stroke-linecap="round" />
</g>
</g>
</g>
		<g transform="matrix(0.6040051769107776 0 0 0.6040051769107776 0 0)"  >
<g style=""  paint-order="stroke"   >
		<g transform="matrix(1 0 0 1 0 0)"  >
<rect style="stroke: none; stroke-width: 1; stroke-dasharray: none; stroke-linecap: butt; stroke-dashoffset: 0; stroke-linejoin: miter; stroke-miterlimit: 4; fill: rgb(198,151,95); fill-rule: nonzero; opacity: 1;"  paint-order="stroke"  x="-100" y="-100" rx="0" ry="0" width="200" height="200" />
</g>
</g>
</g>
</g>
</g>
<g transform="matrix(1.9211538461538462 0 0 1.9211538461538462 638.3633992751562 759.0136660419868)" id="text-logo"  >
<g style=""  paint-order="stroke"   >
		<g transform="matrix(1 0 0 1 0 0)" id="text-logo-path-0"  >
<path style="stroke: rgb(255,255,255); stroke-width: 0; stroke-dasharray: none; stroke-linecap: butt; stroke-dashoffset: 0; stroke-linejoin: miter; stroke-miterlimit: 4; fill: rgb(198,151,95); fill-rule: nonzero; opacity: 1;"  paint-order="stroke"  transform=" translate(-220.825, 21.355)" d="M 2.13 0 L 11.89 0 C 23.67 0 33.24 -9.58 33.24 -21.41 C 33.24 -33.12 23.67 -42.7 11.89 -42.7 L 2.13 -42.7 Z M 11.89 -7.32 L 9.46 -7.32 L 9.46 -35.38 L 11.89 -35.38 C 20.13 -35.38 25.93 -29.59 25.93 -21.41 C 25.93 -13.12 20.13 -7.32 11.89 -7.32 Z M 60.64 0 L 60.64 -18.42 L 71.99 -42.7 L 63.94 -42.7 L 57.35 -28.61 L 50.76 -42.7 L 42.71 -42.7 L 53.26 -20.07 L 53.32 -20.07 L 53.32 0 Z M 88.77 0 L 88.77 -32.39 L 102.68 -12.14 L 102.68 0 L 110 0 L 110 -42.7 L 102.68 -42.7 L 102.68 -25.07 L 90.6 -42.7 L 81.45 -42.7 L 81.45 0 Z M 127.02 0 L 130.01 -11.59 L 140.14 -11.59 L 143.13 0 L 150.69 0 L 139.71 -42.7 L 130.44 -42.7 L 119.46 0 Z M 131.9 -18.91 L 135.08 -31.35 L 138.25 -18.91 Z M 167.47 0 L 167.47 -25.74 L 175.77 -3.66 L 184.19 -3.66 L 192.48 -25.74 L 192.48 0 L 199.8 0 L 199.8 -42.7 L 191.02 -42.7 L 179.98 -13.3 L 168.94 -42.7 L 160.15 -42.7 L 160.15 0 Z M 216.59 0 L 216.59 -42.7 L 209.27 -42.7 L 209.27 0 Z M 253.5 -7.32 L 247.4 -7.32 C 239.16 -7.32 233.37 -13.12 233.37 -21.41 C 233.37 -29.59 239.16 -35.38 247.4 -35.38 L 253.5 -35.38 L 253.5 -42.7 L 247.4 -42.7 C 235.63 -42.7 226.05 -33.12 226.05 -21.41 C 226.05 -9.58 235.63 0 247.4 0 L 253.5 0 Z M 281.26 -25.25 L 262.96 -25.25 L 262.96 -17.93 L 281.26 -17.93 Z M 313.78 -42.7 L 303.35 -42.7 C 296.4 -42.7 290.72 -37.03 290.72 -30.07 C 290.72 -23.06 296.4 -17.45 303.35 -17.45 L 303.35 -20.92 C 307.56 -20.92 310.12 -18.42 310.12 -14.09 C 310.12 -9.88 307.56 -7.32 303.35 -7.32 L 291.52 -7.32 L 291.52 0 L 303.35 0 C 311.1 0 317.44 -6.34 317.44 -14.09 C 317.44 -21.96 311.1 -28.24 303.35 -28.24 L 303.35 -24.77 C 299.93 -24.77 298.04 -26.6 298.04 -30.07 C 298.04 -33.49 299.93 -35.38 303.35 -35.38 L 313.78 -35.38 Z M 348.56 -7.01 C 340.08 -7.01 334.22 -12.93 334.22 -21.41 C 334.22 -29.77 340.08 -35.69 348.56 -35.69 C 356.98 -35.69 362.89 -29.77 362.89 -21.41 C 362.89 -18.18 362.04 -15.25 360.45 -12.99 L 356.92 -18.3 L 348.13 -18.3 L 354.84 -8.23 C 352.95 -7.44 350.88 -7.01 348.56 -7.01 Z M 326.9 -21.41 C 326.9 -9.39 336.54 0.3 348.56 0.3 C 352.28 0.3 355.76 -0.61 358.81 -2.26 L 360.33 0 L 369.12 0 L 364.6 -6.77 C 368.08 -10.67 370.21 -15.8 370.21 -21.41 C 370.21 -33.31 360.52 -43.01 348.56 -43.01 C 336.54 -43.01 326.9 -33.31 326.9 -21.41 Z M 379.68 0 L 403.95 0 L 403.95 -7.32 L 387 -7.32 L 387 -42.7 L 379.68 -42.7 Z M 417.08 -35.38 L 426.53 -35.38 C 430.07 -35.38 432.2 -33.24 432.2 -29.59 L 432.2 -28.85 C 432.2 -25.19 430.07 -23.06 426.53 -23.06 C 419.33 -23.06 413.42 -17.14 413.42 -9.94 L 413.42 0 L 439.52 0 L 439.52 -7.32 L 420.74 -7.32 L 420.74 -9.94 C 420.74 -13.6 422.87 -15.74 426.53 -15.74 C 433.61 -15.74 439.52 -21.66 439.52 -28.85 L 439.52 -29.59 C 439.52 -36.78 433.61 -42.7 426.53 -42.7 L 417.08 -42.7 Z" stroke-linecap="round" />
</g>
</g>
</g>
<g transform="matrix(1.9211538461538462 0 0 1.9211538461538462 632.4165013088532 843.935732)" id="tagline-84a4af04-1511-48de-b2a3-15039f3a3492-logo"  >
<g style=""  paint-order="stroke"   >
		<g transform="matrix(1 0 0 1 0 0)" id="tagline-84a4af04-1511-48de-b2a3-15039f3a3492-logo-path-0"  >
<path style="stroke: none; stroke-width: 0; stroke-dasharray: none; stroke-linecap: butt; stroke-dashoffset: 0; stroke-linejoin: miter; stroke-miterlimit: 4; fill: rgb(198,151,95); fill-rule: nonzero; opacity: 1;"  paint-order="stroke"  transform=" translate(-210.36, 8.4)" d="M 2.57 -4.58 L 0.84 -3.82 C 1.9 -1.54 4.27 0.24 7.18 0.24 C 11.21 0.24 13.46 -2.35 13.46 -4.66 C 13.46 -7.92 9.96 -8.76 7.27 -9.5 C 4.85 -10.18 3.02 -10.75 3.02 -12.43 C 3.02 -14.09 5.04 -15.24 6.77 -15.24 C 9.7 -15.22 10.51 -13.9 11.04 -12.58 L 12.82 -13.25 C 12.22 -14.76 10.9 -17.04 6.77 -17.04 C 4.25 -17.02 1.1 -15.34 1.1 -12.43 C 1.1 -9.41 4.15 -8.5 6.74 -7.78 C 9.43 -7.03 11.54 -6.5 11.54 -4.66 C 11.54 -3.26 10.03 -1.56 7.18 -1.56 C 5.11 -1.56 3.38 -2.83 2.57 -4.58 Z M 24.26 -16.8 L 24.26 0 L 26.18 0 L 26.18 -16.8 Z M 38.04 -16.8 L 38.04 0 L 39.96 0 L 39.96 -13.9 L 45.72 0 L 47.64 0 L 53.4 -13.9 L 53.4 0 L 55.32 0 L 55.32 -16.8 L 52.68 -16.8 L 46.68 -2.33 L 40.68 -16.8 Z M 67.18 -16.8 L 67.18 0 L 69.1 0 L 69.1 -6.31 L 74.38 -6.31 C 77.26 -6.31 79.61 -8.66 79.61 -11.57 C 79.61 -14.45 77.26 -16.8 74.38 -16.8 Z M 69.1 -8.11 L 69.1 -15 L 74.26 -15 C 76.15 -15 77.69 -13.46 77.69 -11.57 C 77.69 -9.65 76.15 -8.11 74.26 -8.11 Z M 90.46 -16.8 L 90.46 0 L 102.22 0 L 102.22 -1.8 L 92.38 -1.8 L 92.38 -16.8 Z M 112.85 -16.8 L 112.85 0 L 124.61 0 L 124.61 -1.8 L 114.77 -1.8 L 114.77 -7.51 L 122.21 -7.51 L 122.21 -9.31 L 114.77 -9.31 L 114.77 -15 L 124.61 -15 L 124.61 -16.8 Z M 135 -8.47 L 135 -8.47 C 135 -9.1 135.17 -9.53 135.48 -9.79 C 135.79 -10.06 136.18 -10.18 136.63 -10.18 L 136.63 -10.18 C 137.09 -10.18 137.47 -10.06 137.81 -9.79 C 138.12 -9.53 138.29 -9.1 138.29 -8.47 L 138.29 -8.47 C 138.29 -7.85 138.12 -7.39 137.81 -7.13 C 137.47 -6.86 137.09 -6.72 136.63 -6.72 L 136.63 -6.72 C 136.18 -6.72 135.77 -6.86 135.48 -7.13 C 135.17 -7.39 135 -7.85 135 -8.47 Z M 150.02 0 L 151.94 0 L 151.94 -7.51 L 159.38 -7.51 L 159.38 -9.31 L 151.94 -9.31 L 151.94 -15 L 161.78 -15 L 161.78 -16.8 L 150.02 -16.8 Z M 172.42 -16.8 L 172.42 0 L 184.18 0 L 184.18 -1.8 L 174.34 -1.8 L 174.34 -16.8 Z M 194.81 -16.8 L 194.81 0 L 206.57 0 L 206.57 -1.8 L 196.73 -1.8 L 196.73 -7.51 L 204.17 -7.51 L 204.17 -9.31 L 196.73 -9.31 L 196.73 -15 L 206.57 -15 L 206.57 -16.8 Z M 216.6 -16.8 L 221.88 -8.4 L 216.12 0 L 218.42 0 L 223.18 -6.91 L 227.9 0 L 230.21 0 L 224.45 -8.4 L 229.73 -16.8 L 227.42 -16.8 L 223.18 -10.03 L 218.9 -16.8 Z M 240.79 -16.8 L 240.79 0 L 242.71 0 L 242.71 -16.8 Z M 254.57 -16.8 L 254.57 0 L 263.21 0 C 265.66 0 267.62 -1.97 267.62 -4.42 C 267.62 -6.41 266.33 -8.09 264.55 -8.64 C 265.7 -9.46 266.5 -10.8 266.5 -12.34 C 266.5 -14.81 264.46 -16.8 262.01 -16.8 Z M 261.84 -9.31 L 256.49 -9.31 L 256.49 -15 L 261.84 -15 C 263.4 -15 264.7 -13.73 264.7 -12.17 C 264.7 -10.58 263.4 -9.31 261.84 -9.31 Z M 256.49 -1.8 L 256.49 -7.51 L 262.97 -7.51 C 264.55 -7.51 265.82 -6.24 265.82 -4.66 C 265.82 -3.07 264.55 -1.8 262.97 -1.8 Z M 278.47 -16.8 L 278.47 0 L 290.23 0 L 290.23 -1.8 L 280.39 -1.8 L 280.39 -16.8 Z M 300.86 -16.8 L 300.86 0 L 312.62 0 L 312.62 -1.8 L 302.78 -1.8 L 302.78 -7.51 L 310.22 -7.51 L 310.22 -9.31 L 302.78 -9.31 L 302.78 -15 L 312.62 -15 L 312.62 -16.8 Z M 323.02 -8.47 L 323.02 -8.47 C 323.02 -9.1 323.18 -9.53 323.5 -9.79 C 323.81 -10.06 324.19 -10.18 324.65 -10.18 L 324.65 -10.18 C 325.1 -10.18 325.49 -10.06 325.82 -9.79 C 326.14 -9.53 326.3 -9.1 326.3 -8.47 L 326.3 -8.47 C 326.3 -7.85 326.14 -7.39 325.82 -7.13 C 325.49 -6.86 325.1 -6.72 324.65 -6.72 L 324.65 -6.72 C 324.19 -6.72 323.78 -6.86 323.5 -7.13 C 323.18 -7.39 323.02 -7.85 323.02 -8.47 Z M 338.69 -4.58 L 336.96 -3.82 C 338.02 -1.54 340.39 0.24 343.3 0.24 C 347.33 0.24 349.58 -2.35 349.58 -4.66 C 349.58 -7.92 346.08 -8.76 343.39 -9.5 C 340.97 -10.18 339.14 -10.75 339.14 -12.43 C 339.14 -14.09 341.16 -15.24 342.89 -15.24 C 345.82 -15.22 346.63 -13.9 347.16 -12.58 L 348.94 -13.25 C 348.34 -14.76 347.02 -17.04 342.89 -17.04 C 340.37 -17.02 337.22 -15.34 337.22 -12.43 C 337.22 -9.41 340.27 -8.5 342.86 -7.78 C 345.55 -7.03 347.66 -6.5 347.66 -4.66 C 347.66 -3.26 346.15 -1.56 343.3 -1.56 C 341.23 -1.56 339.5 -2.83 338.69 -4.58 Z M 365.83 -16.8 L 359.11 0 L 361.13 0 L 362.78 -4.15 L 371.47 -4.15 L 373.13 0 L 375.14 0 L 368.42 -16.8 Z M 363.5 -5.95 L 367.13 -15 L 370.75 -5.95 Z M 385.73 0 L 387.65 0 L 387.65 -7.51 L 395.09 -7.51 L 395.09 -9.31 L 387.65 -9.31 L 387.65 -15 L 397.49 -15 L 397.49 -16.8 L 385.73 -16.8 Z M 408.12 -16.8 L 408.12 0 L 419.88 0 L 419.88 -1.8 L 410.04 -1.8 L 410.04 -7.51 L 417.48 -7.51 L 417.48 -9.31 L 410.04 -9.31 L 410.04 -15 L 419.88 -15 L 419.88 -16.8 Z" stroke-linecap="round" />
</g>
</g>
</g>
<g transform="matrix(1.9211538461538462 0 0 1.9211538461538462 646.6681062030187 407.73928200847917)" id="tagline-81184f7b-f5fb-4edc-871b-34431050d097-logo"  >
<g style=""  paint-order="stroke"   >
		<g transform="matrix(1 0 0 1 0 0)" id="tagline-81184f7b-f5fb-4edc-871b-34431050d097-logo-path-0"  >
<path style="stroke: rgb(255,255,255); stroke-width: 0; stroke-dasharray: none; stroke-linecap: butt; stroke-dashoffset: 0; stroke-linejoin: miter; stroke-miterlimit: 4; fill: rgb(26,91,105); fill-rule: nonzero; opacity: 1;"  paint-order="stroke"  transform=" translate(-38.57000000000001, 46.55)" d="M 4.66 0 L 25.94 0 C 51.6 0 72.48 -20.88 72.48 -46.68 C 72.48 -72.22 51.6 -93.1 25.94 -93.1 L 4.66 -93.1 Z M 25.94 -15.96 L 20.62 -15.96 L 20.62 -77.14 L 25.94 -77.14 C 43.89 -77.14 56.53 -64.51 56.53 -46.68 C 56.53 -28.6 43.89 -15.96 25.94 -15.96 Z" stroke-linecap="round" />
</g>
</g>
</g>
</svg>